v -0.500000 -1.500000 0.500000
v 0.500000 -1.500000 0.500000
v -0.500000 -0.900000 0.500000
v 0.500000 -0.900000 0.500000
v -0.500000 -0.300000 0.500000
v 0.500000 -0.300000 0.500000
v -0.500000 0.300000 0.500000
v 0.500000 0.300000 0.500000
v -0.500000 0.900000 0.500000
v 0.500000 0.900000 0.500000
v -0.500000 1.500000 0.500000
v 0.500000 1.500000 0.500000
v -0.500000 1.500000 -0.500000
v 0.500000 1.500000 -0.500000
v -0.500000 0.900000 -0.500000
v 0.500000 0.900000 -0.500000
v -0.500000 0.300000 -0.500000
v 0.500000 0.300000 -0.500000
v -0.500000 -0.300000 -0.500000
v 0.500000 -0.300000 -0.500000
v -0.500000 -0.900000 -0.500000
v 0.500000 -0.900000 -0.500000
v -0.500000 -1.500000 -0.500000
v 0.500000 -1.500000 -0.500000
vt 0 0 
vt 0 0 
vt 0 0 
vt 0 0 
vt 0 0 
vt 0 0 
vt 0 0 
vt 0 0 
vt 0 0 
vt 0 0 
vt 0 0 
vt 0 0 
vt 0 0 
vt 0 0 
vt 0 0 
vt 0 0 
vt 0 0 
vt 0 0 
vt 0 0 
vt 0 0 
vt 0 0 
vt 0 0 
vt 0 0 
vt 0 0 
vn -0.577350 -0.577350 0.577350
vn 0.577350 -0.577350 0.577350
vn -0.707107 0.000000 0.707107
vn 0.707107 0.000000 0.707107
vn -0.707107 0.000000 0.707107
vn 0.707107 0.000000 0.707107
vn -0.707107 0.000000 0.707107
vn 0.707107 0.000000 0.707107
vn -0.707107 0.000000 0.707107
vn 0.707107 0.000000 0.707107
vn -0.577350 0.577350 0.577350
vn 0.577350 0.577350 0.577350
vn -0.577350 0.577350 -0.577350
vn 0.577350 0.577350 -0.577350
vn -0.707107 0.000000 -0.707107
vn 0.707107 0.000000 -0.707107
vn -0.707107 0.000000 -0.707107
vn 0.707107 0.000000 -0.707107
vn -0.707107 0.000000 -0.707107
vn 0.707107 0.000000 -0.707107
vn -0.707107 0.000000 -0.707107
vn 0.707107 0.000000 -0.707107
vn -0.577350 -0.577350 -0.577350
vn 0.577350 -0.577350 -0.577350
s off
f 1/1/1 2/2/2 3/3/3
f 3/3/3 2/2/2 4/4/4
f 3/3/3 4/4/4 5/5/5
f 5/5/5 4/4/4 6/6/6
f 5/5/5 6/6/6 7/7/7
f 7/7/7 6/6/6 8/8/8
f 7/7/7 8/8/8 9/9/9
f 9/9/9 8/8/8 10/10/10
f 9/9/9 10/10/10 11/11/11
f 11/11/11 10/10/10 12/12/12
f 11/11/11 12/12/12 13/13/13
f 13/13/13 12/12/12 14/14/14
f 13/13/13 14/14/14 15/15/15
f 15/15/15 14/14/14 16/16/16
f 15/15/15 16/16/16 17/17/17
f 17/17/17 16/16/16 18/18/18
f 17/17/17 18/18/18 19/19/19
f 19/19/19 18/18/18 20/20/20
f 19/19/19 20/20/20 21/21/21
f 21/21/21 20/20/20 22/22/22
f 21/21/21 22/22/22 23/23/23
f 23/23/23 22/22/22 24/24/24
f 23/23/23 24/24/24 1/1/1
f 1/1/1 24/24/24 2/2/2
f 2/2/2 24/24/24 4/4/4
f 4/4/4 24/24/24 22/22/22
f 4/4/4 22/22/22 6/6/6
f 6/6/6 22/22/22 20/20/20
f 6/6/6 20/20/20 8/8/8
f 8/8/8 20/20/20 18/18/18
f 8/8/8 18/18/18 10/10/10
f 10/10/10 18/18/18 16/16/16
f 10/10/10 16/16/16 12/12/12
f 12/12/12 16/16/16 14/14/14
f 23/23/23 1/1/1 21/21/21
f 21/21/21 1/1/1 3/3/3
f 21/21/21 3/3/3 19/19/19
f 19/19/19 3/3/3 5/5/5
f 19/19/19 5/5/5 17/17/17
f 17/17/17 5/5/5 7/7/7
f 17/17/17 7/7/7 15/15/15
f 15/15/15 7/7/7 9/9/9
f 15/15/15 9/9/9 13/13/13
f 13/13/13 9/9/9 11/11/11
t crease 2/1/0 0 1 5.000000
t crease 2/1/0 1 3 1.000000
t crease 2/1/0 2 0 1.000000
t crease 2/1/0 3 5 2.000000
t crease 2/1/0 4 2 2.000000
t crease 2/1/0 5 7 3.000000
t crease 2/1/0 6 4 3.000000
t crease 2/1/0 7 9 4.000000
t crease 2/1/0 8 6 4.000000
t crease 2/1/0 9 11 5.000000
t crease 2/1/0 11 10 5.000000
t crease 2/1/0 10 8 5.000000
t crease 2/1/0 11 13 5.000000
t crease 2/1/0 13 12 5.000000
t crease 2/1/0 12 10 5.000000
t crease 2/1/0 13 15 5.000000
t crease 2/1/0 14 12 5.000000
t crease 2/1/0 15 17 4.000000
t crease 2/1/0 16 14 4.000000
t crease 2/1/0 17 19 3.000000
t crease 2/1/0 18 16 3.000000
t crease 2/1/0 19 21 2.000000
t crease 2/1/0 20 18 2.000000
t crease 2/1/0 21 23 1.000000
t crease 2/1/0 23 22 5.000000
t crease 2/1/0 22 20 1.000000
t crease 2/1/0 23 1 5.000000
t crease 2/1/0 0 22 5.000000
t creasemethod 0/0/1 chaikin
;
