mtllib saddle.mtl
g default
v -0.707107 0.007107 0.000000
v 0.000000 -0.700000 0.000000
v 0.707107 0.007107 0.000000
v -0.000000 0.714214 0.000000
v 1.414214 0.714214 1.000000
v -1.414214 -0.700000 -1.000000
vt 0.000000 0.000000
vt 1.000000 0.000000
vt 1.000000 1.000000
vt 0.000000 0.000000
vt 1.000000 0.000000
vt 0.500000 0.500000
vt 0.000000 0.000000
vt 1.000000 0.000000
vt 1.000000 1.000000
vt 0.000000 0.000000
vt 1.000000 0.000000
vt 0.500000 0.500000
vn 0.000000 0.000000 1.000000
vn 0.000000 0.000000 1.000000
vn 0.000000 0.000000 1.000000
vn 0.000000 0.000000 1.000000
vn 0.000000 0.000000 1.000000
vn 0.000000 0.000000 1.000000
vn -0.500000 -0.500000 0.707107
vn -0.500000 -0.500000 0.707107
vn -0.500000 -0.500000 0.707107
vn -0.500000 -0.500000 0.707107
vn -0.500000 -0.500000 0.707107
vn -0.500000 -0.500000 0.707107
s off
g polySurface15
usemtl initialShadingGroup
f 1/1/1 2/2/2 3/3/3
f 1/4/4 3/5/5 4/6/6
f 4/7/7 3/8/8 5/9/9
f 6/10/10 2/11/11 1/12/12
t interpolateboundary 1/0/0 1
;
